<?xml version="1.0" encoding="utf-8"?>
<!-- Generator: Adobe Illustrator 22.1.0, SVG Export Plug-In . SVG Version: 6.00 Build 0)  -->
<svg version="1.1" id="Layer_1" xmlns="http://www.w3.org/2000/svg" xmlns:xlink="http://www.w3.org/1999/xlink" x="0px" y="0px"
	 width="171px" height="56px" viewBox="0 0 171 56" style="enable-background:new 0 0 171 56;" xml:space="preserve">
<style type="text/css">
	.st0{display:none;fill:#0092FF;}
	.st1{display:none;fill:#FFFFFF;}
	.st2{clip-path:url(#SVGID_2_);}
	.st3{fill:#0092FF;}
	.st4{fill:#4788C8;}
	.st5{fill:#4688C8;}
	.st6{fill:#309635;}
	.st7{fill:#FFFFFF;}
	.st8{font-family:'Impact';}
	.st9{font-size:23.0846px;}
</style>
<path class="st0" d="M80.5,23.5V4.6h4.1l6,10.8l6-10.8h4v18.9h-4.5V13.2l-4.3,7.5h-2.7L85,13.3v10.2H80.5z"/>
<path class="st0" d="M104.2,23.5V4.6h13.4v3.8h-8.6V12h8v3.8h-8v3.9h8.6v3.8H104.2z"/>
<path class="st0" d="M120.7,23.5V4.6h7.8c3.3,0,5.8,0.8,7.6,2.5c1.8,1.6,2.7,4,2.7,7s-0.9,5.3-2.7,7c-1.8,1.6-4.3,2.5-7.6,2.5H120.7
	z M125.6,19.5h2.6c1.9,0,3.3-0.4,4.2-1.3c0.9-0.9,1.4-2.3,1.4-4.1s-0.5-3.2-1.4-4.1c-0.9-0.9-2.3-1.3-4.2-1.3h-2.6V19.5z"/>
<path class="st0" d="M141.7,23.5V4.6h4.9v18.9H141.7z"/>
<path class="st0" d="M78.8,52.3l-0.3-3.9l2.2-0.1c0.7,0,1.1-0.2,1.4-0.5c0.3-0.3,0.5-0.8,0.5-1.4V33.1h4.9v13.2c0,3.7-2,5.6-6,5.9
	L78.8,52.3z"/>
<path class="st0" d="M99.3,52.3c-2.8,0-4.9-0.7-6.3-2.1c-1.4-1.4-2.2-3.5-2.2-6.2V33.1h4.9V44c0,1.4,0.3,2.4,0.9,3.1
	c0.6,0.7,1.5,1,2.7,1c1.1,0,2-0.3,2.6-1c0.6-0.7,0.9-1.7,0.9-3.1V33.1h4.9v10.9c0,2.8-0.7,4.9-2.1,6.2
	C104.2,51.6,102.1,52.3,99.3,52.3z"/>
<path class="st0" d="M108.6,52l8.8-18.9h3.9l8.8,18.9h-4.9l-1.6-3.8h-8.4l-1.6,3.8H108.6z M119.4,38.2l-2.6,6.1h5.2L119.4,38.2
	L119.4,38.2z"/>
<path class="st0" d="M131.3,52V33.1h3.6l8.7,10.8V33.1h4.6V52h-3.6l-8.7-10.8V52H131.3z"/>
<path class="st1" d="M149.4,52l8.9-18.9h3.9L171,52H166l-1.6-3.8H156l-1.6,3.8H149.4z M160.1,38.2l-2.6,6.1h5.2L160.1,38.2
	L160.1,38.2z"/>
<g>
	<defs>
		<rect id="SVGID_1_" width="67" height="55.3"/>
	</defs>
	<clipPath id="SVGID_2_">
		<use xlink:href="#SVGID_1_"  style="overflow:visible;"/>
	</clipPath>
	<g class="st2">
		<path class="st3" d="M35.6,0L36,0.9l1.7,3.7c3.3,7.1,5.6,13.8,6.9,20.1c2.3-2,4.9-4,7.8-6l3.3-2.3l3.1-2.2C54,6.2,45.5,0.7,35.6,0
			z"/>
		<path class="st4" d="M60.3,16.9l-0.2,1.9l-0.4,4c-0.1,0.4-0.7,7.6-3.1,15.3c1.7-0.3,3.4-0.5,5-0.6c0.8-2.7,1.2-5.5,1.2-8.5
			C63,24.7,62,20.6,60.3,16.9z"/>
		<path class="st5" d="M6.9,18.8l-0.2-2C5,20.5,4,24.6,4,29c0,2.9,0.5,5.8,1.2,8.5c1.7,0.1,3.4,0.4,5.1,0.6
			c-2.4-7.5-3.1-14.5-3.1-15.3L6.9,18.8z"/>
		<path class="st3" d="M8.2,14.1l3.1,2.2l3.3,2.3c2.9,2,5.5,4.1,7.8,6c1.4-6.3,3.7-13.1,6.9-20.1L31,0.9L31.4,0
			C21.6,0.7,13,6.1,8.2,14.1z"/>
		<path class="st6" d="M63.7,40.1c-4.1,0.2-8,0.9-11.4,1.9c3.9-8.9,4.7-18.8,4.7-19.4l0.4-4L54.1,21c-5,3.6-8.7,6.7-11.2,9.3
			c-1-6.8-3.3-14.9-7.7-24.5L33.5,2l-1.7,3.7c-4.3,9.6-6.6,17.7-7.6,24.5c-2.6-2.6-6.2-5.7-11.2-9.3l-3.3-2.3l0.4,4
			c0.1,0.6,0.9,10.6,4.7,19.4c-3.4-1-7.2-1.7-11.4-1.9L0,40l1.8,2.9c0.2,0.2,2,3.2,5.6,6.8c3.5,3.6,8.4,5.6,13.4,5.6
			c-6.5-3.6-11-8.2-13.5-11.2c4.6,0.6,8.7,1.9,12,3.4c2.5,1.1,4.7,2.7,6.5,4.7c1.7,1.9,4.1,3,6.8,3c-3.7-4.9-9.7-18.1,1-44.1
			c10.7,25.9,4.4,39.2,0.8,44.1h0.1c2.6,0,5-1.2,6.7-3.1c1.7-1.9,3.8-3.5,6.2-4.5c3.5-1.6,7.7-2.9,12.4-3.6
			c-2.5,3-6.9,7.6-13.5,11.2c5,0,9.8-2,13.3-5.6c3.6-3.6,5.5-6.6,5.6-6.8L67,40L63.7,40.1z M24.5,45.9c-3.4-1.8-6.2-4.8-7.4-8.4
			c-1.4-4-2.3-8.1-2.7-11c4.6,3.6,7.5,6.4,9.4,8.7C23.5,39.3,23.9,42.9,24.5,45.9z M42.6,45.9c0.6-3,0.9-6.6,0.7-10.8
			c1.9-2.2,4.8-5.2,9.4-8.7c-0.5,2.9-1.3,7-2.7,11C48.7,41.1,46,44.1,42.6,45.9z"/>
	</g>
</g>
<text transform="matrix(1.0948 0 0 1 68.249 22.917)"><tspan x="0" y="0" class="st7 st8 st9">EVASPOT</tspan><tspan x="0" y="27.7" class="st7 st8 st9">EXTRACTS</tspan></text>
</svg>
